<svg xmlns="http://www.w3.org/2000/svg" version="1.1" xmlns:xlink="http://www.w3.org/1999/xlink" xmlns:svgjs="http://svgjs.com/svgjs" id="BgenPttrnSvgRootPreview" width="100%" height="100%"><defs><pattern x="0" y="0" width="1" height="1" patternUnits="userSpaceOnUse" id="BgenPttrnLayer1" patternTransform="matrix(1,0,0,1,0,0)"><g id="PatternRootContent1"><g id="BgenPttrnLayer1background"><rect width="1" height="1" id="BgenPttrnBackground1" class="color_1 fill_color_1" fill="#211d1d"></rect></g></g></pattern><pattern x="0" y="0" width="1" height="1" patternUnits="userSpaceOnUse" id="BgenPttrnLayer2" patternTransform="matrix(1.258936909523479e-16,2.056,-2.056,1.258936909523479e-16,0,0)"><g id="PatternRootContent2"></g></pattern><pattern x="0" y="0" width="42" height="42" patternUnits="userSpaceOnUse" id="BgenPttrnLayer3" patternTransform="matrix(-0.257,3.1473422738086976e-17,-3.1473422738086976e-17,-0.257,0,0)"><g id="PatternRootContent3"><g id="BgenPttrnLayer3Element1"><use xlink:href="#BgenPttrnElement1" x="1" y="1" transform="translate(21, 21) scale(1) translate(-21, -21) rotate(0, 21, 21)"></use></g></g></pattern><symbol id="BgenPttrnElement1"><path d="M20,40C8.973,40,0,31.028,0,20.001S8.973,0,20,0s20,8.973,20,20.001S31.027,40,20,40z M20,4.949c-8.3,0-15.052,6.752-15.052,15.052c0,8.299,6.752,15.051,15.052,15.051s15.052-6.752,15.052-15.051C35.052,11.701,28.3,4.949,20,4.949z" class="color_2 fill_color_2" fill="#000000"></path></symbol></defs><rect width="100%" height="100%" id="BgenPttrnRctLayer1" fill="url(#BgenPttrnLayer1)"></rect><rect width="100%" height="100%" id="BgenPttrnRctLayer2" fill="url(#BgenPttrnLayer2)"></rect><rect width="100%" height="100%" id="BgenPttrnRctLayer3" fill="url(#BgenPttrnLayer3)"></rect></svg>